<svg width="26" height="21" viewBox="0 0 26 21" fill="none" xmlns="http://www.w3.org/2000/svg">
<path d="M19.4382 0.881348H6.55824C4.85081 0.883174 3.21383 1.56226 2.00649 2.7696C0.799151 3.97694 0.120067 5.61391 0.11824 7.32135V18.3613C0.11824 18.8493 0.312097 19.3174 0.657164 19.6624C1.00223 20.0075 1.47024 20.2013 1.95824 20.2013H24.0382C24.5262 20.2013 24.9942 20.0075 25.3393 19.6624C25.6844 19.3174 25.8782 18.8493 25.8782 18.3613V7.32135C25.8764 5.61391 25.1973 3.97694 23.99 2.7696C22.7826 1.56226 21.1457 0.883174 19.4382 0.881348ZM24.0382 7.32135V8.24135H20.3582V2.81335C21.3966 3.02684 22.3295 3.59178 22.9999 4.41296C23.6702 5.23413 24.0369 6.26131 24.0382 7.32135ZM13.9182 11.9213H12.0782V8.24135H13.9182V11.9213ZM11.1582 13.7613H14.8382C15.0822 13.7613 15.3162 13.6644 15.4888 13.4919C15.6613 13.3194 15.7582 13.0853 15.7582 12.8413V10.0813H18.5182V18.3613H7.47824V10.0813H10.2382V12.8413C10.2382 13.0853 10.3352 13.3194 10.5077 13.4919C10.6802 13.6644 10.9142 13.7613 11.1582 13.7613ZM15.7582 8.24135V7.32135C15.7582 7.07735 15.6613 6.84334 15.4888 6.67081C15.3162 6.49828 15.0822 6.40135 14.8382 6.40135H11.1582C10.9142 6.40135 10.6802 6.49828 10.5077 6.67081C10.3352 6.84334 10.2382 7.07735 10.2382 7.32135V8.24135H7.47824V2.72135H18.5182V8.24135H15.7582ZM5.63824 2.81335V8.24135H1.95824V7.32135C1.95954 6.26131 2.32626 5.23413 2.99661 4.41296C3.66695 3.59178 4.59992 3.02684 5.63824 2.81335ZM1.95824 10.0813H5.63824V18.3613H1.95824V10.0813ZM24.0382 18.3613H20.3582V10.0813H24.0382V18.3613Z" fill="#FCFCFD"/>
</svg>
