<svg width="28" height="29" viewBox="0 0 28 29" fill="none" xmlns="http://www.w3.org/2000/svg">
<g filter="url(#filter0_bd_1_381)">
<path d="M12.9626 1.50269C13.6891 0.725279 14.922 0.72528 15.6486 1.50269L17.2959 3.26524C17.6583 3.65298 18.1706 3.86517 18.701 3.84725L21.1121 3.76576C22.1756 3.72982 23.0473 4.60157 23.0114 5.66506L22.9299 8.07619C22.912 8.60661 23.1242 9.1189 23.5119 9.48129L25.2745 11.1286C26.0519 11.8552 26.0519 13.088 25.2745 13.8146L23.5119 15.4619C23.1242 15.8243 22.912 16.3366 22.9299 16.867L23.0114 19.2781C23.0473 20.3416 22.1756 21.2134 21.1121 21.1774L18.701 21.096C18.1706 21.078 17.6583 21.2902 17.2959 21.678L15.6486 23.4405C14.922 24.2179 13.6891 24.2179 12.9626 23.4405L11.3152 21.678C10.9529 21.2902 10.4406 21.078 9.91015 21.096L7.49902 21.1774C6.43554 21.2134 5.56378 20.3416 5.59972 19.2781L5.68121 16.867C5.69913 16.3366 5.48694 15.8243 5.0992 15.4619L3.33665 13.8146C2.55924 13.088 2.55924 11.8552 3.33665 11.1286L5.0992 9.48129C5.48694 9.1189 5.69913 8.60661 5.68121 8.07619L5.59972 5.66506C5.56378 4.60157 6.43554 3.72982 7.49902 3.76576L9.91015 3.84725C10.4406 3.86517 10.9529 3.65298 11.3152 3.26524L12.9626 1.50269Z" fill="url(#paint0_linear_1_381)" fill-opacity="0.1" shape-rendering="crispEdges"/>
<path d="M13.0281 1.56397C13.7192 0.824514 14.8919 0.824515 15.583 1.56397L17.2303 3.32652C17.6104 3.73319 18.1477 3.95574 18.704 3.93694L21.1151 3.85546C22.1267 3.82127 22.9559 4.65046 22.9217 5.66203L22.8402 8.07316C22.8214 8.62948 23.044 9.16677 23.4506 9.54685L25.2132 11.1942C25.9526 11.8853 25.9526 13.0579 25.2132 13.749L23.4506 15.3963C23.044 15.7764 22.8214 16.3137 22.8402 16.87L22.9217 19.2812C22.9559 20.2927 22.1267 21.1219 21.1151 21.0877L18.704 21.0063C18.1477 20.9875 17.6104 21.21 17.2303 21.6167L15.583 23.3792C14.8919 24.1187 13.7192 24.1187 13.0281 23.3792L11.3808 21.6167C11.0007 21.21 10.4634 20.9875 9.90712 21.0063L7.49599 21.0877C6.48443 21.1219 5.65523 20.2927 5.68942 19.2812L5.7709 16.87C5.7897 16.3137 5.56715 15.7764 5.16048 15.3963L3.39793 13.749C2.65848 13.0579 2.65848 11.8853 3.39793 11.1942L5.16048 9.54685C5.56715 9.16677 5.7897 8.62948 5.7709 8.07316L5.68942 5.66203C5.65523 4.65046 6.48443 3.82127 7.49599 3.85546L9.90712 3.93694C10.4634 3.95574 11.0007 3.73319 11.3808 3.32652L13.0281 1.56397Z" stroke="url(#paint1_linear_1_381)" stroke-width="0.179493" shape-rendering="crispEdges"/>
</g>
<defs>
<filter id="filter0_bd_1_381" x="0.641886" y="-0.241807" width="27.3273" height="28.4888" filterUnits="userSpaceOnUse" color-interpolation-filters="sRGB">
<feFlood flood-opacity="0" result="BackgroundImageFix"/>
<feGaussianBlur in="BackgroundImageFix" stdDeviation="0.580719"/>
<feComposite in2="SourceAlpha" operator="in" result="effect1_backgroundBlur_1_381"/>
<feColorMatrix in="SourceAlpha" type="matrix" values="0 0 0 0 0 0 0 0 0 0 0 0 0 0 0 0 0 0 127 0" result="hardAlpha"/>
<feOffset dy="2.11171"/>
<feGaussianBlur stdDeviation="1.05585"/>
<feComposite in2="hardAlpha" operator="out"/>
<feColorMatrix type="matrix" values="0 0 0 0 0 0 0 0 0 0 0 0 0 0 0 0 0 0 0.25 0"/>
<feBlend mode="normal" in2="effect1_backgroundBlur_1_381" result="effect2_dropShadow_1_381"/>
<feBlend mode="normal" in="SourceGraphic" in2="effect2_dropShadow_1_381" result="shape"/>
</filter>
<linearGradient id="paint0_linear_1_381" x1="26.7085" y1="1.93966" x2="24.0009" y2="21.1443" gradientUnits="userSpaceOnUse">
<stop stop-color="#3EA2F4"/>
<stop offset="0.630208"/>
<stop offset="1" stop-color="#423EF4"/>
</linearGradient>
<linearGradient id="paint1_linear_1_381" x1="43.2021" y1="5.96624" x2="40.722" y2="23.8342" gradientUnits="userSpaceOnUse">
<stop stop-color="#F4EBD8"/>
<stop offset="1" stop-color="white" stop-opacity="0"/>
</linearGradient>
</defs>
</svg>
