<svg width="21" height="24" viewBox="0 0 21 24" fill="none" xmlns="http://www.w3.org/2000/svg">
<path d="M8.6771 1.40529C9.65291 0.493287 11.1685 0.493286 12.1443 1.40529L14.6032 3.70344C14.8864 3.96811 15.2264 4.16443 15.5972 4.27734L18.8169 5.25776C20.0947 5.64683 20.8525 6.95935 20.5505 8.26043L19.7897 11.539C19.7021 11.9166 19.7021 12.3092 19.7897 12.6868L20.5505 15.9654C20.8525 17.2664 20.0947 18.579 18.817 18.968L15.5972 19.9484C15.2264 20.0614 14.8864 20.2577 14.6032 20.5223L12.1443 22.8205C11.1685 23.7325 9.65291 23.7325 8.6771 22.8205L6.21817 20.5223C5.93499 20.2577 5.59496 20.0614 5.22415 19.9484L2.00443 18.968C0.72671 18.579 -0.0310754 17.2664 0.27084 15.9654L1.03163 12.6868C1.11925 12.3092 1.11925 11.9166 1.03163 11.539L0.270841 8.26043C-0.0310751 6.95935 0.726708 5.64683 2.00443 5.25776L5.22415 4.27734C5.59496 4.16443 5.93499 3.96811 6.21817 3.70344L8.6771 1.40529Z" fill="#F1F8FE"/>
</svg>
