<svg width="24" height="24" viewBox="0 0 24 24" fill="none" xmlns="http://www.w3.org/2000/svg">
<g filter="url(#filter0_i_1_380)">
<path d="M10.7628 1.23201C11.5974 0.338952 13.0137 0.338953 13.8483 1.23201L15.211 2.69003C15.6273 3.13545 16.2158 3.37921 16.8251 3.35861L18.8197 3.29121C20.0414 3.24992 21.0428 4.25135 21.0015 5.47303L20.9341 7.46758C20.9135 8.0769 21.1573 8.66539 21.6027 9.08169L23.0607 10.4444C23.9538 11.279 23.9538 12.6953 23.0607 13.5299L21.6027 14.8926C21.1573 15.3089 20.9135 15.8974 20.9341 16.5068L21.0015 18.5013C21.0428 19.723 20.0414 20.7244 18.8197 20.6831L16.8251 20.6157C16.2158 20.5951 15.6273 20.8389 15.211 21.2843L13.8483 22.7423C13.0137 23.6354 11.5974 23.6354 10.7628 22.7423L9.40008 21.2843C8.98379 20.8389 8.3953 20.5951 7.78597 20.6157L5.79143 20.6831C4.56975 20.7244 3.56832 19.723 3.6096 18.5013L3.67701 16.5068C3.6976 15.8974 3.45384 15.3089 3.00842 14.8926L1.55041 13.53C0.657352 12.6953 0.657351 11.279 1.5504 10.4444L3.00842 9.08169C3.45384 8.66539 3.6976 8.0769 3.67701 7.46758L3.6096 5.47303C3.56832 4.25135 4.56975 3.24992 5.79143 3.29121L7.78597 3.35861C8.3953 3.37921 8.98379 3.13544 9.40008 2.69003L10.7628 1.23201Z" fill="#F5F1DD"/>
</g>
<defs>
<filter id="filter0_i_1_380" x="0.880615" y="0.56221" width="22.8499" height="22.8499" filterUnits="userSpaceOnUse" color-interpolation-filters="sRGB">
<feFlood flood-opacity="0" result="BackgroundImageFix"/>
<feBlend mode="normal" in="SourceGraphic" in2="BackgroundImageFix" result="shape"/>
<feColorMatrix in="SourceAlpha" type="matrix" values="0 0 0 0 0 0 0 0 0 0 0 0 0 0 0 0 0 0 127 0" result="hardAlpha"/>
<feOffset dy="0.527927"/>
<feComposite in2="hardAlpha" operator="arithmetic" k2="-1" k3="1"/>
<feColorMatrix type="matrix" values="0 0 0 0 1 0 0 0 0 1 0 0 0 0 1 0 0 0 1 0"/>
<feBlend mode="normal" in2="shape" result="effect1_innerShadow_1_380"/>
</filter>
</defs>
</svg>
