<svg width="23" height="23" viewBox="0 0 23 23" fill="none" xmlns="http://www.w3.org/2000/svg">
<path d="M20.9203 8.04174C21.4083 8.04174 21.8763 7.84788 22.2214 7.50281C22.5664 7.15774 22.7603 6.68973 22.7603 6.20174V2.52174C22.7603 2.03374 22.5664 1.56573 22.2214 1.22066C21.8763 0.875592 21.4083 0.681735 20.9203 0.681735H17.2403C16.7523 0.681735 16.2843 0.875592 15.9392 1.22066C15.5942 1.56573 15.4003 2.03374 15.4003 2.52174V3.44174H8.0403V2.52174C8.0403 2.03374 7.84644 1.56573 7.50137 1.22066C7.15631 0.875592 6.6883 0.681735 6.2003 0.681735H2.5203C2.0323 0.681735 1.56429 0.875592 1.21922 1.22066C0.874154 1.56573 0.680298 2.03374 0.680298 2.52174V6.20174C0.680298 6.68973 0.874154 7.15774 1.21922 7.50281C1.56429 7.84788 2.0323 8.04174 2.5203 8.04174H3.4403V15.4017H2.5203C2.0323 15.4017 1.56429 15.5956 1.21922 15.9407C0.874154 16.2857 0.680298 16.7537 0.680298 17.2417V20.9217C0.680298 21.4097 0.874154 21.8777 1.21922 22.2228C1.56429 22.5679 2.0323 22.7617 2.5203 22.7617H6.2003C6.6883 22.7617 7.15631 22.5679 7.50137 22.2228C7.84644 21.8777 8.0403 21.4097 8.0403 20.9217V20.0017H15.4003V20.9217C15.4003 21.4097 15.5942 21.8777 15.9392 22.2228C16.2843 22.5679 16.7523 22.7617 17.2403 22.7617H20.9203C21.4083 22.7617 21.8763 22.5679 22.2214 22.2228C22.5664 21.8777 22.7603 21.4097 22.7603 20.9217V17.2417C22.7603 16.7537 22.5664 16.2857 22.2214 15.9407C21.8763 15.5956 21.4083 15.4017 20.9203 15.4017H20.0003V8.04174H20.9203ZM17.2403 2.52174H20.9203V6.20174H17.2403V2.52174ZM2.5203 2.52174H6.2003V4.35024C6.19878 4.35783 6.19878 4.36564 6.2003 4.37324V6.20174H2.5203V2.52174ZM6.2003 20.9217H2.5203V17.2417H6.2003V19.0702C6.19878 19.0778 6.19878 19.0856 6.2003 19.0932V20.9217ZM20.9203 20.9217H17.2403V17.2417H20.9203V20.9217ZM18.1603 15.4017H17.2403C16.7523 15.4017 16.2843 15.5956 15.9392 15.9407C15.5942 16.2857 15.4003 16.7537 15.4003 17.2417V18.1617H8.0403V17.2417C8.0403 16.7537 7.84644 16.2857 7.50137 15.9407C7.15631 15.5956 6.6883 15.4017 6.2003 15.4017H5.2803V8.04174H6.2003C6.6883 8.04174 7.15631 7.84788 7.50137 7.50281C7.84644 7.15774 8.0403 6.68973 8.0403 6.20174V5.28174H15.4003V6.20174C15.4003 6.68973 15.5942 7.15774 15.9392 7.50281C16.2843 7.84788 16.7523 8.04174 17.2403 8.04174H18.1603V15.4017Z" fill="#FCFCFD"/>
</svg>
