<svg width="24" height="24" viewBox="0 0 24 24" fill="none" xmlns="http://www.w3.org/2000/svg">
<path d="M21.1255 0.834821H2.87438C2.35357 0.834821 1.85408 1.04171 1.48581 1.40998C1.11754 1.77825 0.910652 2.27774 0.910652 2.79855V8.48296C0.911139 8.86033 1.02035 9.22956 1.22521 9.54647C1.43006 9.86339 1.7219 10.1146 2.06579 10.27L9.29692 13.5563C8.22623 14.1555 7.3845 15.0928 6.90359 16.2216C6.42268 17.3503 6.32974 18.6067 6.63934 19.794C6.94893 20.9812 7.64357 22.0322 8.61445 22.7824C9.58534 23.5326 10.7776 23.9395 12.0046 23.9395C13.2315 23.9395 14.4238 23.5326 15.3947 22.7824C16.3655 22.0322 17.0602 20.9812 17.3698 19.794C17.6794 18.6067 17.5864 17.3503 17.1055 16.2216C16.6246 15.0928 15.7829 14.1555 14.7122 13.5563L21.9341 10.27C22.278 10.1146 22.5698 9.86339 22.7747 9.54647C22.9795 9.22956 23.0887 8.86033 23.0892 8.48296V2.79855C23.0892 2.27774 22.8823 1.77825 22.5141 1.40998C22.1458 1.04171 21.6463 0.834821 21.1255 0.834821ZM15.6964 2.68304V11.0774L11.9999 12.757L8.30351 11.0774V2.68304H15.6964ZM2.75887 8.48296V2.79855C2.75887 2.76791 2.77104 2.73853 2.7927 2.71687C2.81436 2.69521 2.84374 2.68304 2.87438 2.68304H6.4553V10.2365L2.82702 8.58808C2.80675 8.57897 2.78954 8.56421 2.77746 8.54556C2.76537 8.52692 2.75891 8.50518 2.75887 8.48296ZM11.9999 22.0893C11.2689 22.0893 10.5542 21.8725 9.94631 21.4663C9.33844 21.0602 8.86466 20.4829 8.58488 19.8074C8.30511 19.132 8.23191 18.3888 8.37453 17.6717C8.51716 16.9547 8.86921 16.296 9.38617 15.7791C9.90312 15.2621 10.5618 14.9101 11.2788 14.7675C11.9958 14.6248 12.7391 14.698 13.4145 14.9778C14.0899 15.2576 14.6672 15.7314 15.0734 16.3392C15.4796 16.9471 15.6964 17.6618 15.6964 18.3929C15.6964 19.3732 15.3069 20.3134 14.6137 21.0066C13.9205 21.6998 12.9803 22.0893 11.9999 22.0893ZM21.241 8.48296C21.241 8.50518 21.2345 8.52692 21.2224 8.54556C21.2103 8.56421 21.1931 8.57897 21.1729 8.58808L17.5446 10.2365V2.68304H21.1255C21.1561 2.68304 21.1855 2.69521 21.2072 2.71687C21.2288 2.73853 21.241 2.76791 21.241 2.79855V8.48296Z" fill="#FCFCFD"/>
</svg>
